<svg width="1538" height="877" viewBox="0 0 1538 877" fill="none" xmlns="http://www.w3.org/2000/svg">
<g clip-path="url(#clip0_65_6)">
<g filter="url(#filter0_f_65_6)">
<path d="M1354 396.454C1345.81 528.828 1088.73 634.832 774.448 632.976C463.386 631.138 210.898 522.146 211 389.868C211.041 334.628 254.413 283.699 327.451 242.885C366.418 226.351 428.926 232.893 514.974 262.513C644.045 306.942 714.727 402.335 945.212 399.721C1175.7 397.108 1239.47 348.767 1354 396.454Z" fill="url(#paint0_linear_65_6)"/>
<path d="M1121.57 272.583C1127.37 283.072 1117.59 293.03 1099.73 294.816C1081.86 296.601 1062.67 289.554 1056.87 279.065C1051.07 268.576 1060.84 258.619 1078.71 256.833C1096.57 255.047 1115.77 262.095 1121.57 272.583Z" fill="url(#paint1_linear_65_6)"/>
<path d="M344.64 413.094C336.465 432.381 312.925 446.73 292.089 445.127C271.233 443.532 260.969 426.597 269.143 407.309C277.318 388.013 300.858 373.674 321.694 375.268C342.55 376.871 352.814 393.798 344.64 413.094Z" fill="url(#paint2_linear_65_6)"/>
</g>
</g>
<defs>
<filter id="filter0_f_65_6" x="-39" y="-16" width="1643" height="899" filterUnits="userSpaceOnUse" color-interpolation-filters="sRGB">
<feFlood flood-opacity="0" result="BackgroundImageFix"/>
<feBlend mode="normal" in="SourceGraphic" in2="BackgroundImageFix" result="shape"/>
<feGaussianBlur stdDeviation="125" result="effect1_foregroundBlur_65_6"/>
</filter>
<linearGradient id="paint0_linear_65_6" x1="211.088" y1="228.995" x2="1354" y2="228.995" gradientUnits="userSpaceOnUse">
<stop stop-color="#09B6A1"/>
<stop offset="1" stop-color="#02BBD2"/>
</linearGradient>
<linearGradient id="paint1_linear_65_6" x1="1058.88" y1="251.709" x2="1119.56" y2="251.709" gradientUnits="userSpaceOnUse">
<stop stop-color="#7CD1A5"/>
<stop offset="1" stop-color="#0DBBBD"/>
</linearGradient>
<linearGradient id="paint2_linear_65_6" x1="304.109" y1="363.923" x2="332.652" y2="403.575" gradientUnits="userSpaceOnUse">
<stop stop-color="#7CD1A5"/>
<stop offset="1" stop-color="#0DBBBD"/>
</linearGradient>
<clipPath id="clip0_65_6">
<rect width="1538" height="877" fill="white"/>
</clipPath>
</defs>
</svg>
