<svg width="1307" height="615" viewBox="0 0 1307 615" fill="none" xmlns="http://www.w3.org/2000/svg">
<g clip-path="url(#clip0_1:153)">
<g filter="url(#filter0_f_1:153)">
<path d="M-299.324 -278.027C-284.239 -293.807 -262.913 -298.951 -240.897 -297.749L-35.6531 -113.335C-27.9427 -90.2206 -21.296 -66.664 -10.1929 -45.0725C22.5862 18.6614 88.6683 56.4195 148.695 95.4319C208.722 134.444 270.112 184.629 282.725 255.33C285.084 268.581 284.692 283.487 280.627 298.804C272.411 329.71 241.704 349.535 210.381 343.895C210.239 343.875 210.096 343.841 209.955 343.821C123.873 328.263 39.4905 273.631 14.5652 189.771C-2.06425 133.799 9.10272 71.5599 -11.1994 16.8589C-32.3303 -40.0923 -83.9475 -79.4803 -136.098 -110.448C-188.247 -141.387 -244.553 -167.995 -285.939 -212.306C-291.918 -218.713 -297.505 -225.629 -302.619 -232.939C-312.217 -246.659 -311.144 -265.524 -299.538 -277.803C-299.472 -277.877 -299.391 -277.952 -299.324 -278.027Z" fill="url(#paint0_linear_1:153)"/>
</g>
<g filter="url(#filter1_f_1:153)">
<path d="M1008.49 275.62C988.983 274.86 969.583 271.88 951.203 267.2C906.603 255.87 853.793 218.99 857.153 167.4C857.563 161.06 858.853 154.78 860.803 148.74C868.483 125.04 892.193 106.47 917.053 108.1C936.543 109.38 953.383 121.78 968.053 134.67C982.733 147.57 997.113 161.84 1015.52 168.36C1029.09 173.16 1043.81 173.34 1058.19 172.95C1075.56 172.48 1094.03 170.99 1110.69 177.06C1132.57 185.03 1151.06 209.04 1137.42 231.98C1132.65 240 1125.16 246.09 1117.13 250.87C1084.75 270.17 1046.39 277.1 1008.49 275.62Z" fill="url(#paint1_linear_1:153)"/>
<g style="mix-blend-mode:overlay" opacity="0.2">
<path d="M987.233 167.43C998.023 176.54 1016 188.78 1016.86 204.43C1017.67 219.21 1003.13 228.77 990.223 231.36C951.543 239.12 909.003 222.06 886.393 189.73C879.553 179.94 874.343 168.44 874.773 156.51C875.333 141.09 886.273 126.57 900.943 121.77C915.313 117.08 931.383 121.42 944.153 129.52C960.613 139.95 972.543 155.02 987.233 167.43Z" fill="#FBFEF3"/>
</g>
</g>
<g style="mix-blend-mode:overlay" filter="url(#filter2_f_1:153)">
<g style="mix-blend-mode:overlay">
<g style="mix-blend-mode:overlay">
<path d="M745.35 592.709C684.55 650.609 584.8 646.569 509.52 609.389C434.24 572.209 376.01 508.739 313.82 452.339C251.62 395.939 178.76 343.509 95.02 337.429C41.25 333.519 -13.76 350.049 -56.48 382.939C-94.38 412.129 -121.69 452.539 -149.64 491.349C-177.59 530.169 -207.93 569.059 -249.32 593.029C-290.71 616.999 -345.94 622.919 -385.18 595.559C-436.04 560.079 -440.82 486.079 -427.28 425.569C-413.74 365.059 -386.94 305.539 -392.96 243.829C-401.93 151.899 -484.16 80.609 -572.89 54.959C-661.62 29.309 -756.26 39.789 -848 50.469" stroke="#1E19F3" stroke-width="15"/>
</g>
<g style="mix-blend-mode:overlay">
<path d="M748.01 570.299C690.02 633.639 591.52 640.489 515.15 610.009C440.51 580.219 382.36 521.259 319.48 467.219C255.14 411.939 185.22 353.779 100.49 345.789C46.46 340.799 -9.15001 357.879 -52.39 390.869C-91.11 420.379 -119.56 461.029 -149.33 498.859C-179.1 536.689 -212.55 572.249 -253.24 592.089C-293.76 611.859 -345.01 614.929 -381.43 586.959C-428.37 550.899 -431.96 479.349 -419.47 419.999C-406.57 358.689 -385.31 298.669 -394.38 238.459C-407.68 150.139 -488.74 82.719 -576.51 59.229C-664.27 35.749 -757.4 47.089 -847.77 58.619" stroke="#1E19F3" stroke-width="15"/>
</g>
<g style="mix-blend-mode:overlay">
<path d="M750.66 547.889C695.5 616.679 598.64 634.439 520.77 610.629C447.13 588.119 388.66 533.799 325.15 482.109C258.62 427.959 191.68 364.039 105.96 354.159C51.68 348.089 -4.54005 365.709 -48.3 398.799C-87.85 428.639 -117.43 469.529 -149.02 506.369C-180.62 543.219 -217.07 575.409 -257.15 591.159C-296.73 606.709 -344.06 606.979 -377.68 578.369C-420.69 541.749 -423.12 472.609 -411.66 414.419C-399.42 352.319 -383.62 291.859 -395.8 233.089C-413.34 148.459 -493.32 84.819 -580.13 63.499C-666.93 42.189 -758.54 54.389 -847.54 66.759" stroke="#1E19F3" stroke-width="15"/>
</g>
<g style="mix-blend-mode:overlay">
<path d="M753.31 525.479C700.98 599.709 606.18 628.319 526.4 611.259C454.09 595.789 394.91 546.379 330.81 496.989C262.06 444.009 198.16 374.099 111.42 362.519C56.91 355.249 0.0699692 373.549 -44.22 406.729C-84.58 436.899 -115.3 478.019 -148.71 513.889C-182.13 549.749 -221.46 578.549 -261.07 590.229C-299.58 601.569 -343.1 599.049 -373.93 569.769C-413.01 532.649 -414.32 465.859 -403.85 408.839C-392.29 345.929 -381.86 285.109 -397.22 227.719C-418.86 146.819 -497.9 86.9289 -583.74 67.7789C-669.58 48.6189 -759.68 61.689 -847.31 74.909" stroke="#1E19F3" stroke-width="15"/>
</g>
<g style="mix-blend-mode:overlay">
<path d="M755.96 503.069C706.45 582.739 614.1 622.019 532.02 611.879C461.36 603.139 401.11 558.999 336.48 511.869C265.46 460.079 204.63 384.309 116.89 370.889C62.13 362.499 4.66999 381.379 -40.13 414.659C-81.32 445.149 -113.17 486.509 -148.4 521.399C-183.64 556.279 -225.72 581.719 -264.99 589.289C-302.32 596.489 -342.14 591.159 -370.18 561.179C-405.32 523.589 -405.54 459.109 -396.03 403.269C-385.18 339.529 -380.03 278.389 -398.64 222.349C-424.25 145.229 -502.49 89.039 -587.36 72.049C-672.24 55.059 -760.82 68.999 -847.08 83.059" stroke="#1E19F3" stroke-width="15"/>
</g>
<g style="mix-blend-mode:overlay">
<path d="M758.61 480.659C711.93 565.779 621.02 597.379 537.65 612.499C469.94 624.789 407.28 571.659 342.15 526.749C268.82 476.189 211.1 394.539 122.36 379.249C67.35 369.769 9.28002 389.219 -36.04 422.589C-78.05 453.409 -111.04 495.009 -148.09 528.909C-185.15 562.809 -229.84 584.959 -268.91 588.359C-304.93 591.489 -341.17 583.319 -366.43 552.579C-397.64 514.589 -396.79 452.339 -388.22 397.689C-378.1 333.129 -378.1 271.699 -400.06 216.979C-429.48 143.659 -507.07 91.139 -590.98 76.319C-674.89 61.499 -761.97 76.299 -846.85 91.199" stroke="#1E19F3" stroke-width="15"/>
</g>
<g style="mix-blend-mode:overlay">
<path d="M761.26 458.249C717.41 548.809 627.32 588.399 543.28 613.119C479.17 631.989 413.4 584.359 347.81 541.639C272.14 492.339 217.56 404.779 127.82 387.609C72.57 377.039 13.89 397.049 -31.95 430.519C-74.79 461.669 -108.9 503.499 -147.78 536.419C-186.66 569.339 -234.53 594.829 -272.83 587.429C-306.81 580.859 -340.22 575.519 -362.68 543.989C-389.98 505.659 -388.07 445.569 -380.41 392.109C-371.04 326.719 -376.07 265.019 -401.48 211.609C-434.56 142.079 -511.65 93.249 -594.6 80.589C-677.55 67.929 -763.11 83.599 -846.62 99.349" stroke="#1E19F3" stroke-width="15"/>
</g>
<g style="mix-blend-mode:overlay">
<path d="M763.91 435.839C722.88 531.839 639.28 601.049 548.9 613.749C484.27 622.829 419.5 597.109 353.48 556.519C275.42 508.529 224.03 415.039 133.29 395.979C77.78 384.319 18.5 404.889 -27.86 438.449C-71.52 469.919 -106.77 511.999 -147.47 543.929C-188.17 575.869 -237.75 591.839 -276.75 586.489C-309.88 581.949 -339.28 567.769 -358.93 535.389C-382.36 496.779 -379.38 438.789 -372.6 386.539C-364.01 320.309 -373.93 258.329 -402.9 206.249C-439.48 140.469 -516.23 95.359 -598.22 84.859C-680.2 74.369 -764.25 90.909 -846.39 107.499" stroke="#1E19F3" stroke-width="15"/>
</g>
<g style="mix-blend-mode:overlay">
<path d="M822.87 422.096C784.67 523.536 704.05 601.806 610.84 623.036C548.26 637.296 481.87 618.556 415.46 580.066C334.98 533.436 286.8 433.966 195.07 413.006C139.31 400.276 79.42 421.386 32.53 455.046C-11.95 486.846 -48.33 529.157 -90.85 560.107C-133.37 591.067 -185.36 604.217 -224.36 594.227C-256.01 586.117 -282.07 568.726 -298.87 535.466C-318.47 496.626 -314.4 440.666 -308.48 389.626C-300.7 322.556 -315.38 260.256 -348.01 209.546C-387.95 147.466 -464.5 106.126 -545.52 97.8065C-626.55 89.4765 -709.08 106.876 -789.85 124.306" stroke="#1E19F3" stroke-width="15"/>
</g>
<g style="mix-blend-mode:overlay">
<path d="M769.21 391.019C733.83 497.909 656.02 584.739 560.16 614.989C499.52 634.129 431.6 622.719 364.81 586.279C281.89 541.049 236.95 435.569 144.22 412.709C88.22 398.899 27.7199 420.559 -19.6901 454.309C-64.9901 486.439 -102.51 528.989 -146.85 558.959C-191.19 588.929 -245.64 599.469 -284.59 584.629C-314.81 573.099 -337.54 552.399 -351.43 518.199C-367.27 479.179 -362.07 425.219 -356.97 375.379C-350.04 307.459 -369.34 244.779 -405.74 195.509C-448.91 137.049 -525.39 99.569 -605.45 93.409C-685.51 87.249 -766.54 105.509 -845.93 123.789" stroke="#1E19F3" stroke-width="15"/>
</g>
<g style="mix-blend-mode:overlay">
<path d="M771.87 368.609C739.31 480.939 664.02 575.899 565.78 615.619C506.92 639.419 437.62 635.579 370.48 601.169C285.09 557.399 243.4 445.849 149.69 421.069C93.43 406.199 32.33 428.389 -15.6 462.239C-61.73 494.699 -100.38 537.479 -146.54 566.469C-192.7 595.449 -249.74 603.569 -288.5 583.689C-317.4 568.879 -336.76 544.759 -347.68 509.609C-359.84 470.439 -353.45 418.429 -349.16 369.799C-343.1 301.029 -366.9 237.889 -407.16 190.139C-453.46 135.209 -529.98 101.679 -609.07 97.679C-688.17 93.679 -767.68 112.819 -845.7 131.929" stroke="#1E19F3" stroke-width="15"/>
</g>
<g style="mix-blend-mode:overlay">
<path d="M774.52 346.199C744.79 463.969 671.68 566.679 571.41 616.239C514.12 644.559 443.63 648.489 376.14 616.049C288.27 573.799 249.86 456.139 155.16 429.439C98.64 413.499 36.9401 436.219 -11.5099 470.169C-58.4599 502.949 -98.25 545.969 -146.23 573.979C-194.21 601.979 -254.01 607.789 -292.42 582.759C-320.1 564.729 -336.06 537.129 -343.93 501.009C-352.49 461.709 -344.85 411.639 -341.35 364.229C-336.21 294.599 -364.39 230.899 -408.58 184.769C-457.93 133.249 -534.56 103.779 -612.69 101.949C-690.82 100.119 -768.82 120.119 -845.48 140.079" stroke="#1E19F3" stroke-width="15"/>
</g>
<g style="mix-blend-mode:overlay">
<path d="M777.17 323.789C750.26 446.999 678.94 557.169 577.04 616.859C521.11 649.619 449.63 661.439 381.81 630.929C291.42 590.259 256.31 466.439 160.62 437.799C103.85 420.809 41.55 444.059 -7.42999 478.099C-55.2 511.209 -96.12 554.469 -145.92 581.489C-195.73 608.509 -258.45 612.089 -296.34 581.829C-322.92 560.599 -335.44 529.499 -340.18 492.419C-345.22 452.969 -336.28 404.849 -333.54 358.649C-329.35 288.169 -361.81 223.789 -410 179.399C-462.35 131.179 -539.14 105.889 -616.31 106.219C-693.48 106.559 -769.96 127.419 -845.25 148.229" stroke="#1E19F3" stroke-width="15"/>
</g>
<g style="mix-blend-mode:overlay">
<path d="M779.82 301.369C755.74 430.039 685.8 547.459 582.66 617.489C527.9 654.669 455.62 674.429 387.48 645.809C294.56 606.789 262.7 476.939 166.09 446.169C109.02 428.229 46.16 451.889 -3.34003 486.029C-51.93 519.469 -93.99 562.959 -145.61 588.999C-197.24 615.039 -263.05 616.399 -300.26 580.889C-325.86 556.459 -334.9 521.839 -336.43 483.819C-338.02 444.199 -327.74 398.059 -325.73 353.069C-322.54 281.739 -359.19 216.549 -411.42 174.029C-466.75 128.979 -543.72 107.999 -619.93 110.499C-696.13 112.989 -771.11 134.729 -845.02 156.369" stroke="#1E19F3" stroke-width="15"/>
</g>
<g style="mix-blend-mode:overlay">
<path d="M782.47 278.959C761.22 413.069 692.3 537.649 588.29 618.109C534.49 659.729 461.6 687.459 393.14 660.689C297.69 623.379 269.15 487.199 171.56 454.529C114.24 435.519 50.7699 459.729 0.749939 493.959C-48.6701 527.719 -91.8601 571.459 -145.3 596.509C-198.75 621.569 -267.8 620.699 -304.18 579.959C-328.89 552.289 -334.43 514.129 -332.68 475.229C-330.88 435.379 -319.21 391.279 -317.92 347.499C-315.78 275.319 -356.55 209.189 -412.84 168.659C-471.16 126.669 -548.3 110.099 -623.54 114.769C-698.79 119.429 -772.25 142.029 -844.79 164.519" stroke="#1E19F3" stroke-width="15"/>
</g>
<g style="mix-blend-mode:overlay">
<path d="M785.12 256.549C766.69 396.099 698.46 527.789 593.91 618.729C540.9 664.849 467.59 700.519 398.81 675.579C300.81 640.039 275.61 497.459 177.02 462.899C119.45 442.799 55.38 467.559 4.83997 501.889C-45.4 535.979 -89.7301 579.949 -144.99 604.029C-200.26 628.099 -272.65 624.949 -308.1 579.029C-332 548.069 -334.01 506.369 -328.93 466.629C-323.79 426.489 -310.71 384.499 -310.1 341.919C-309.07 268.889 -353.91 201.709 -414.26 163.289C-475.59 124.249 -552.88 112.209 -627.16 119.039C-701.44 125.869 -773.39 149.329 -844.56 172.669" stroke="#1E19F3" stroke-width="15"/>
</g>
<g style="mix-blend-mode:overlay">
<path d="M787.77 234.139C772.17 379.129 704.34 517.949 599.54 619.359C547.17 670.039 473.58 713.619 404.48 690.459C303.93 656.759 282.06 507.729 182.49 471.259C124.66 450.089 59.9901 475.399 8.93005 509.819C-42.1399 544.239 -87.6 588.449 -144.68 611.539C-201.77 634.629 -277.58 629.139 -312.02 578.089C-335.16 543.789 -333.62 498.539 -325.18 458.039C-316.73 417.529 -302.22 377.719 -302.29 336.339C-302.42 262.479 -351.29 194.119 -415.67 157.919C-480.06 121.729 -557.47 114.319 -630.78 123.309C-704.1 132.299 -774.53 156.629 -844.33 180.809" stroke="#1E19F3" stroke-width="15"/>
</g>
</g>
</g>
<g filter="url(#filter3_f_1:153)">
<path d="M1312.31 660.648L1131.2 770.834C1102.2 775.555 1067.59 773.818 1036.68 764.88C990.249 751.448 964.859 701.018 982.489 656.019C982.575 655.815 982.648 655.607 982.734 655.402C1021.93 556.013 1122.42 484.082 1229.1 478.313C1274.54 475.839 1320.22 484.357 1365.47 479.627C1410.74 474.887 1458.71 452.376 1474.39 409.645C1488.25 371.829 1473.29 329.382 1480.04 289.689C1485.53 257.461 1506.08 228.128 1534.5 212.007C1534.57 211.966 1534.65 211.928 1534.72 211.886C1548.22 204.285 1565.13 206.716 1576.4 217.348C1605.35 244.659 1623.36 283.707 1623.83 323.594C1624.44 375.806 1595 427.31 1549.7 453.279C1506.89 477.802 1452.6 480.509 1414.76 512.15C1384.13 537.734 1369.56 577.125 1349.31 610.373C1338.49 628.145 1326.1 644.98 1312.31 660.648Z" fill="url(#paint2_linear_1:153)"/>
</g>
</g>
<defs>
<filter id="filter0_f_1:153" x="-429.106" y="-417.916" width="833.283" height="882.768" filterUnits="userSpaceOnUse" color-interpolation-filters="sRGB">
<feFlood flood-opacity="0" result="BackgroundImageFix"/>
<feBlend mode="normal" in="SourceGraphic" in2="BackgroundImageFix" result="shape"/>
<feGaussianBlur stdDeviation="60" result="effect1_foregroundBlur_1:153"/>
</filter>
<filter id="filter1_f_1:153" x="737" y="-12" width="525.089" height="407.812" filterUnits="userSpaceOnUse" color-interpolation-filters="sRGB">
<feFlood flood-opacity="0" result="BackgroundImageFix"/>
<feBlend mode="normal" in="SourceGraphic" in2="BackgroundImageFix" result="shape"/>
<feGaussianBlur stdDeviation="60" result="effect1_foregroundBlur_1:153"/>
</filter>
<filter id="filter2_f_1:153" x="-968.867" y="-88.4987" width="1918.76" height="912.841" filterUnits="userSpaceOnUse" color-interpolation-filters="sRGB">
<feFlood flood-opacity="0" result="BackgroundImageFix"/>
<feBlend mode="normal" in="SourceGraphic" in2="BackgroundImageFix" result="shape"/>
<feGaussianBlur stdDeviation="60" result="effect1_foregroundBlur_1:153"/>
</filter>
<filter id="filter3_f_1:153" x="856.865" y="87.4613" width="886.978" height="805.926" filterUnits="userSpaceOnUse" color-interpolation-filters="sRGB">
<feFlood flood-opacity="0" result="BackgroundImageFix"/>
<feBlend mode="normal" in="SourceGraphic" in2="BackgroundImageFix" result="shape"/>
<feGaussianBlur stdDeviation="60" result="effect1_foregroundBlur_1:153"/>
</filter>
<linearGradient id="paint0_linear_1:153" x1="86.7663" y1="429.723" x2="-538.007" y2="-635.18" gradientUnits="userSpaceOnUse">
<stop stop-color="#FFB136"/>
<stop offset="0.994" stop-color="#FF6C33"/>
</linearGradient>
<linearGradient id="paint1_linear_1:153" x1="992.036" y1="485.934" x2="815.014" y2="149.592" gradientUnits="userSpaceOnUse">
<stop stop-color="#5C4FA9"/>
<stop offset="0.994" stop-color="#13B89F"/>
</linearGradient>
<linearGradient id="paint2_linear_1:153" x1="1674.8" y1="334.641" x2="1020.09" y2="1165.88" gradientUnits="userSpaceOnUse">
<stop stop-color="#C81F84"/>
<stop offset="0.994" stop-color="#B40082"/>
</linearGradient>
<clipPath id="clip0_1:153">
<rect width="1307" height="615" fill="white"/>
</clipPath>
</defs>
</svg>
