<svg width="128" height="128" viewBox="0 0 128 128" fill="none" xmlns="http://www.w3.org/2000/svg">
<path d="M19 64C34 36 49 36 64 64C79 92 94 92 109 64" stroke="white" stroke-width="6" stroke-linecap="round"/>
<line x1="102" y1="57" x2="102" y2="61" stroke="white" stroke-width="4" stroke-linecap="round"/>
<line x1="102" y1="57" x2="102" y2="61" stroke="white" stroke-width="4" stroke-linecap="round"/>
<line x1="94" y1="53" x2="94" y2="65" stroke="white" stroke-width="4" stroke-linecap="round"/>
<line x1="94" y1="53" x2="94" y2="65" stroke="white" stroke-width="4" stroke-linecap="round"/>
<line x1="70" y1="41" x2="70" y2="53" stroke="white" stroke-width="4" stroke-linecap="round"/>
<line x1="70" y1="41" x2="70" y2="53" stroke="white" stroke-width="4" stroke-linecap="round"/>
<line x1="86" y1="45" x2="86" y2="73" stroke="white" stroke-width="4" stroke-linecap="round"/>
<line x1="86" y1="45" x2="86" y2="73" stroke="white" stroke-width="4" stroke-linecap="round"/>
<line x1="78" y1="37" x2="78" y2="65" stroke="white" stroke-width="4" stroke-linecap="round"/>
<line x1="78" y1="37" x2="78" y2="65" stroke="white" stroke-width="4" stroke-linecap="round"/>
<line x1="26" y1="71" x2="26" y2="67" stroke="white" stroke-width="4" stroke-linecap="round"/>
<line x1="26" y1="71" x2="26" y2="67" stroke="white" stroke-width="4" stroke-linecap="round"/>
<line x1="34" y1="75" x2="34" y2="63" stroke="white" stroke-width="4" stroke-linecap="round"/>
<line x1="34" y1="75" x2="34" y2="63" stroke="white" stroke-width="4" stroke-linecap="round"/>
<line x1="58" y1="87" x2="58" y2="75" stroke="white" stroke-width="4" stroke-linecap="round"/>
<line x1="58" y1="87" x2="58" y2="75" stroke="white" stroke-width="4" stroke-linecap="round"/>
<line x1="42" y1="83" x2="42" y2="55" stroke="white" stroke-width="4" stroke-linecap="round"/>
<line x1="42" y1="83" x2="42" y2="55" stroke="white" stroke-width="4" stroke-linecap="round"/>
<line x1="50" y1="91" x2="50" y2="63" stroke="white" stroke-width="4" stroke-linecap="round"/>
<line x1="50" y1="91" x2="50" y2="63" stroke="white" stroke-width="4" stroke-linecap="round"/>
</svg>
